<?xml version="1.0" encoding="iso-8859-1"?>
<!-- Generator: Adobe Illustrator 19.0.0, SVG Export Plug-In . SVG Version: 6.00 Build 0)  -->
<svg version="1.1" id="Layer_1" xmlns="http://www.w3.org/2000/svg" xmlns:xlink="http://www.w3.org/1999/xlink" x="0px" y="0px"
	 viewBox="0 0 512 512" style="enable-background:new 0 0 512 512;" xml:space="preserve">
<path style="fill:#F9EBDB;" d="M492.936,456.175l-6.405,22.419c-2.473,8.639-11.841,15.709-20.829,15.709H73.532
	c-8.987,0-18.356-7.07-20.829-15.709l-6.405-22.419H492.936z"/>
<path style="fill:#F7CD95;" d="M26.014,177.026C14.794,192.418,8.17,211.351,8.17,231.821c0,51.407,41.821,93.238,93.238,93.238
	h20.033c24.315,57.823,81.506,98.435,148.175,98.435c88.739,0,160.681-71.941,160.681-160.681v-85.787L26.014,177.026
	L26.014,177.026z M101.409,292.378c-33.389,0-60.558-27.169-60.558-60.558c0-7.669,1.427-15.142,4.172-22.114h63.913v53.106
	c0,10.098,0.937,19.979,2.723,29.565H101.409z"/>
<g>
	<path style="fill:#FFFFFF;" d="M269.617,377.196c-4.512,0-8.17-3.658-8.17-8.17c0-4.512,3.658-8.17,8.17-8.17
		c60.067,0,108.936-48.869,108.936-108.936v-9.536c0-4.512,3.658-8.17,8.17-8.17s8.17,3.658,8.17,8.17v9.536
		C394.894,320.997,338.695,377.196,269.617,377.196z"/>
	<path style="fill:#FFFFFF;" d="M386.723,217.872c-4.512,0-8.17-3.658-8.17-8.17v-43.574c0-4.512,3.658-8.17,8.17-8.17
		s8.17,3.658,8.17,8.17v43.574C394.894,214.214,391.236,217.872,386.723,217.872z"/>
</g>
<g>
	<path style="fill:#700D00;" d="M503.83,447.321h-11.078c-0.01,0-457.348,0-457.348,0c-4.512,0-8.17,3.658-8.17,8.17
		c0,4.512,3.658,8.17,8.17,8.17h4.731l4.711,16.49c3.466,12.133,16.066,21.638,28.685,21.638h392.17
		c12.619,0,25.219-9.505,28.685-21.637l4.712-16.491h4.731c4.512,0,8.17-3.658,8.17-8.17
		C512,450.979,508.342,447.321,503.83,447.321z M478.675,475.663c-1.463,5.121-7.647,9.786-12.973,9.786H73.532
		c-5.327,0-11.51-4.665-12.973-9.786l-3.429-12.001h424.975L478.675,475.663z"/>
	<path style="fill:#700D00;" d="M101.406,299.861h10.253c2.428,0,4.731-1.081,6.283-2.948c1.552-1.867,2.194-4.329,1.75-6.716
		c-1.716-9.227-2.586-18.671-2.586-28.067v-53.111c0-4.512-3.658-8.17-8.17-8.17H45.025c-3.355,0-6.369,2.051-7.6,5.173
		c-3.148,7.984-4.744,16.432-4.744,25.112C32.681,269.03,63.511,299.861,101.406,299.861z M50.896,217.189h49.87v44.941
		c0,7.138,0.454,14.298,1.352,21.391h-0.711c-28.886,0-52.385-23.501-52.385-52.386C49.021,226.366,49.651,221.696,50.896,217.189z"
		/>
	<path style="fill:#700D00;" d="M101.406,332.542h14.7c27.51,59.982,87.175,98.439,153.511,98.439
		c93.104,0,168.851-75.747,168.851-168.851v-85.792c0-4.512-3.658-8.17-8.17-8.17H26.013c-2.611,0-5.064,1.248-6.603,3.358
		C6.712,188.95,0,209.562,0,231.134C0,287.05,45.491,332.542,101.406,332.542z M30.288,184.508h391.84v77.621
		c0,84.094-68.416,152.511-152.511,152.511c-61.569,0-116.775-36.676-140.646-93.437c-1.275-3.032-4.243-5.002-7.532-5.002h-20.032
		c-46.906,0-85.066-38.161-85.066-85.067C16.34,214.411,21.15,198.377,30.288,184.508z"/>
</g>
<g>
	<path style="fill:#E8D6BD;" d="M231.489,151.828c-4.512,0-8.17-3.658-8.17-8.17c0-12.443,3.386-18.932,6.374-24.658
		c2.525-4.839,4.52-8.663,4.52-17.098c0-8.437-1.995-12.261-4.52-17.102c-2.988-5.726-6.374-12.216-6.374-24.659
		s3.386-18.933,6.374-24.66c2.525-4.84,4.52-8.664,4.52-17.101c0-4.512,3.658-8.17,8.17-8.17c4.512,0,8.17,3.658,8.17,8.17
		c0,12.443-3.386,18.933-6.374,24.66c-2.525,4.84-4.52,8.664-4.52,17.101s1.995,12.261,4.52,17.101
		c2.988,5.727,6.374,12.217,6.374,24.66c0,12.442-3.386,18.931-6.374,24.657c-2.525,4.84-4.52,8.663-4.52,17.099
		C239.66,148.17,236.001,151.828,231.489,151.828z"/>
	<path style="fill:#E8D6BD;" d="M296.851,151.828c-4.512,0-8.17-3.658-8.17-8.17c0-12.443,3.386-18.932,6.374-24.658
		c2.525-4.839,4.52-8.663,4.52-17.098c0-8.437-1.995-12.261-4.52-17.102c-2.988-5.726-6.374-12.216-6.374-24.659
		s3.386-18.933,6.374-24.66c2.525-4.84,4.52-8.664,4.52-17.101c0-4.512,3.658-8.17,8.17-8.17c4.512,0,8.17,3.658,8.17,8.17
		c0,12.443-3.386,18.933-6.374,24.66c-2.525,4.84-4.52,8.664-4.52,17.101s1.995,12.261,4.52,17.101
		c2.988,5.727,6.374,12.217,6.374,24.66c0,12.442-3.386,18.931-6.374,24.657c-2.525,4.84-4.52,8.663-4.52,17.099
		C305.021,148.17,301.363,151.828,296.851,151.828z"/>
</g>
<g>
</g>
<g>
</g>
<g>
</g>
<g>
</g>
<g>
</g>
<g>
</g>
<g>
</g>
<g>
</g>
<g>
</g>
<g>
</g>
<g>
</g>
<g>
</g>
<g>
</g>
<g>
</g>
<g>
</g>
</svg>
